<svg xmlns="http://www.w3.org/2000/svg" viewBox="0 0 128 128"><defs><linearGradient id="art-bg" x2="1" y2="1"><stop stop-color="#ffbd42"/><stop offset="1" stop-color="#182d63"/></linearGradient><linearGradient id="art-light" x2=".7" y2="1"><stop stop-color="#ffffff" stop-opacity=".32"/><stop offset=".5" stop-color="#ffffff" stop-opacity="0"/><stop offset="1" stop-color="#08143a" stop-opacity=".25"/></linearGradient></defs><rect width="128" height="128" rx="22" fill="url(#art-bg)"/><path d="M64 16L95 53 79 105H49L33 53ZM33 53H95M64 16L49 53 64 112 79 53Z" fill="none" stroke="#f2fcff" stroke-width="7" stroke-linecap="round" stroke-linejoin="round"/><path d="M8 45V17Q8 8 17 8H44M84 120H111Q120 120 120 111V84" fill="none" stroke="#fff" stroke-opacity=".45" stroke-width="2"/><path d="M8 64H28M100 64H120M64 8V18" stroke="#b1f9ff" stroke-opacity=".4"/><circle cx="108" cy="20" r="5" fill="#ffe180"/><path d="M17 115H38" stroke="#7efaff" stroke-width="3"/><rect width="128" height="128" rx="20" fill="url(#art-light)" pointer-events="none"/></svg>